<svg width="1200" height="760" viewBox="0 0 1200 760" fill="none" xmlns="http://www.w3.org/2000/svg">
  <rect width="1200" height="760" fill="#090A0D"/>
  <rect width="1200" height="760" fill="url(#ambient)"/>
  <path d="M0 618C180 520 334 549 512 604C728 671 925 661 1200 540V760H0V618Z" fill="#0E0D12"/>
  <path d="M0 130H1200M0 260H1200M0 390H1200M0 520H1200M170 0V760M340 0V760M510 0V760M680 0V760M850 0V760M1020 0V760" stroke="#E8EAF4" stroke-opacity=".035"/>

  <g filter="url(#shadow)">
    <rect x="104" y="76" width="992" height="610" rx="30" fill="#141318" stroke="#E8EAF4" stroke-opacity=".12"/>
    <rect x="104" y="76" width="992" height="70" rx="30" fill="#0F1015"/>
    <path d="M104 146H1096" stroke="#E8EAF4" stroke-opacity=".08"/>
    <circle cx="145" cy="111" r="8" fill="#E1306C"/>
    <circle cx="173" cy="111" r="8" fill="#F59E0B"/>
    <circle cx="201" cy="111" r="8" fill="#1877F2"/>
    <text x="244" y="118" fill="#E8EAF4" fill-opacity=".48" font-family="JetBrains Mono, monospace" font-size="16" letter-spacing="2">LA LENTE DE PIPUS / SOCIAL FLOW</text>

    <g transform="translate(148 190)">
      <rect width="232" height="346" rx="24" fill="#0C0D12" stroke="#E8EAF4" stroke-opacity=".12"/>
      <rect x="18" y="20" width="196" height="220" rx="18" fill="url(#photo)"/>
      <circle cx="116" cy="130" r="46" fill="#F4D7B5" fill-opacity=".16"/>
      <path d="M64 205L112 156L144 188L166 166L206 205" stroke="#FFF7ED" stroke-opacity=".55" stroke-width="5" stroke-linecap="round" stroke-linejoin="round"/>
      <text x="24" y="278" fill="#E8EAF4" font-family="Inter, Arial, sans-serif" font-size="22" font-weight="850">Foto aprobada</text>
      <text x="24" y="306" fill="#E8EAF4" fill-opacity=".48" font-family="Inter, Arial, sans-serif" font-size="16">Drive upload · JPG</text>
    </g>

    <g transform="translate(424 190)">
      <text x="0" y="20" fill="#E8EAF4" font-family="Inter, Arial, sans-serif" font-size="24" font-weight="850">Flujo asistido</text>
      <text x="0" y="48" fill="#E8EAF4" fill-opacity=".48" font-family="Inter, Arial, sans-serif" font-size="15">Filtros, formato, captions y aprobación.</text>

      <g transform="translate(0 82)">
        <rect width="298" height="52" rx="14" fill="#1B1A22" stroke="#E8EAF4" stroke-opacity=".09"/>
        <circle cx="28" cy="26" r="10" fill="#B45309"/>
        <text x="52" y="31" fill="#E8EAF4" font-family="Inter, Arial, sans-serif" font-size="17" font-weight="750">¿Agregar filtros?</text>
      </g>
      <g transform="translate(0 150)">
        <rect width="298" height="52" rx="14" fill="#1B1A22" stroke="#E8EAF4" stroke-opacity=".09"/>
        <circle cx="28" cy="26" r="10" fill="#D97706"/>
        <text x="52" y="31" fill="#E8EAF4" font-family="Inter, Arial, sans-serif" font-size="17" font-weight="750">Post o historia</text>
      </g>
      <g transform="translate(0 218)">
        <rect width="298" height="52" rx="14" fill="#1B1A22" stroke="#E8EAF4" stroke-opacity=".09"/>
        <circle cx="28" cy="26" r="10" fill="#5B5FE8"/>
        <text x="52" y="31" fill="#E8EAF4" font-family="Inter, Arial, sans-serif" font-size="17" font-weight="750">Caption + hashtags</text>
      </g>
      <g transform="translate(0 286)">
        <rect width="298" height="52" rx="14" fill="#211A12" stroke="#D97706" stroke-opacity=".28"/>
        <circle cx="28" cy="26" r="10" fill="#10B981"/>
        <text x="52" y="31" fill="#E8EAF4" font-family="Inter, Arial, sans-serif" font-size="17" font-weight="850">Aprobación final</text>
      </g>

      <g transform="translate(336 108)">
        <path d="M0 12H74" stroke="#E8EAF4" stroke-opacity=".22" stroke-width="2"/>
        <path d="M74 12L62 4V20L74 12Z" fill="#E8EAF4" fill-opacity=".34"/>
      </g>
    </g>

    <g transform="translate(790 162)">
      <rect width="236" height="408" rx="30" fill="#0B0C11" stroke="#E8EAF4" stroke-opacity=".14"/>
      <rect x="18" y="20" width="200" height="256" rx="22" fill="url(#photo2)"/>
      <circle cx="118" cy="126" r="42" fill="#FFF2D8" fill-opacity=".18"/>
      <path d="M54 222L101 174L134 205L156 183L200 226" stroke="#FFF7ED" stroke-opacity=".62" stroke-width="5" stroke-linecap="round" stroke-linejoin="round"/>
      <rect x="38" y="298" width="160" height="12" rx="6" fill="#E8EAF4" fill-opacity=".22"/>
      <rect x="38" y="324" width="132" height="12" rx="6" fill="#E8EAF4" fill-opacity=".14"/>
      <rect x="38" y="350" width="176" height="12" rx="6" fill="#E8EAF4" fill-opacity=".14"/>
      <g transform="translate(38 376)">
        <rect width="78" height="30" rx="15" fill="#E1306C" fill-opacity=".18" stroke="#E1306C" stroke-opacity=".28"/>
        <text x="18" y="20" fill="#E8EAF4" font-family="Inter, Arial, sans-serif" font-size="12" font-weight="800">IG</text>
        <rect x="92" width="78" height="30" rx="15" fill="#1877F2" fill-opacity=".18" stroke="#1877F2" stroke-opacity=".28"/>
        <text x="110" y="20" fill="#E8EAF4" font-family="Inter, Arial, sans-serif" font-size="12" font-weight="800">FB</text>
      </g>
    </g>

    <g transform="translate(424 584)">
      <rect width="602" height="48" rx="14" fill="#0F1015" stroke="#E8EAF4" stroke-opacity=".09"/>
      <text x="24" y="31" fill="#E8EAF4" fill-opacity=".45" font-family="JetBrains Mono, monospace" font-size="12" letter-spacing="1.8">FOTO → N8N → CAPTION IA → CLOUDINARY → META</text>
    </g>
  </g>

  <defs>
    <radialGradient id="ambient" cx="0" cy="0" r="1" gradientUnits="userSpaceOnUse" gradientTransform="translate(300 142) rotate(34) scale(780 480)">
      <stop stop-color="#B45309" stop-opacity=".28"/>
      <stop offset=".56" stop-color="#D97706" stop-opacity=".11"/>
      <stop offset="1" stop-color="#090A0D" stop-opacity="0"/>
    </radialGradient>
    <linearGradient id="photo" x1="18" y1="20" x2="214" y2="240" gradientUnits="userSpaceOnUse">
      <stop stop-color="#FCD9AF"/>
      <stop offset=".45" stop-color="#A65F2B"/>
      <stop offset="1" stop-color="#2A1710"/>
    </linearGradient>
    <linearGradient id="photo2" x1="18" y1="20" x2="218" y2="276" gradientUnits="userSpaceOnUse">
      <stop stop-color="#FFF2D8"/>
      <stop offset=".43" stop-color="#B45309"/>
      <stop offset="1" stop-color="#141318"/>
    </linearGradient>
    <filter id="shadow" x="66" y="46" width="1068" height="686" filterUnits="userSpaceOnUse" color-interpolation-filters="sRGB">
      <feDropShadow dx="0" dy="28" stdDeviation="30" flood-color="#000000" flood-opacity=".45"/>
    </filter>
  </defs>
</svg>
