<svg width="1200" height="760" viewBox="0 0 1200 760" fill="none" xmlns="http://www.w3.org/2000/svg">
  <rect width="1200" height="760" fill="#0B0D11"/>
  <rect width="1200" height="760" fill="url(#bg)"/>
  <path d="M0 588C190 514 319 536 480 584C657 637 828 668 1200 527V760H0V588Z" fill="#0F1117"/>
  <path d="M0 135H1200M0 265H1200M0 395H1200M0 525H1200M160 0V760M320 0V760M480 0V760M640 0V760M800 0V760M960 0V760" stroke="#F1F3F4" stroke-opacity=".035"/>

  <g filter="url(#shadow)">
    <rect x="117" y="82" width="966" height="596" rx="28" fill="#151821" stroke="#F1F3F4" stroke-opacity=".12"/>
    <rect x="117" y="82" width="966" height="72" rx="28" fill="#10131A"/>
    <path d="M117 154H1083" stroke="#F1F3F4" stroke-opacity=".08"/>
    <circle cx="157" cy="118" r="8" fill="#E10600"/>
    <circle cx="185" cy="118" r="8" fill="#F3B23C"/>
    <circle cx="213" cy="118" r="8" fill="#25D366"/>
    <text x="254" y="124" fill="#F1F3F4" fill-opacity=".44" font-family="JetBrains Mono, monospace" font-size="18" letter-spacing="2">EDEL RACING TEAM / PERFORMANCE LAB</text>

    <g transform="translate(157 202)">
      <rect x="0" y="0" width="280" height="78" rx="14" fill="#E10600"/>
      <text x="26" y="33" fill="#FFF8F8" font-family="Inter, Arial, sans-serif" font-size="15" font-weight="800" letter-spacing="3">NEXT ACTION</text>
      <text x="26" y="61" fill="#FFF8F8" font-family="Inter, Arial, sans-serif" font-size="24" font-weight="900">Capturar tanda</text>
    </g>

    <g transform="translate(477 202)">
      <rect width="166" height="118" rx="14" fill="#1D202A" stroke="#F1F3F4" stroke-opacity=".09"/>
      <text x="22" y="34" fill="#F1F3F4" fill-opacity=".38" font-family="Inter, Arial, sans-serif" font-size="15" font-weight="800" letter-spacing="2">PILOTOS</text>
      <text x="22" y="88" fill="#F1F3F4" font-family="JetBrains Mono, monospace" font-size="58" font-weight="900">04</text>
    </g>
    <g transform="translate(669 202)">
      <rect width="224" height="118" rx="14" fill="#1D202A" stroke="#F1F3F4" stroke-opacity=".09"/>
      <text x="22" y="34" fill="#F1F3F4" fill-opacity=".38" font-family="Inter, Arial, sans-serif" font-size="15" font-weight="800" letter-spacing="2">ENTRENOS</text>
      <text x="22" y="88" fill="#F1F3F4" font-family="JetBrains Mono, monospace" font-size="58" font-weight="900">18</text>
    </g>
    <g transform="translate(919 202)">
      <rect width="124" height="118" rx="14" fill="#251D12" stroke="#F3B23C" stroke-opacity=".18"/>
      <text x="22" y="34" fill="#F3B23C" font-family="Inter, Arial, sans-serif" font-size="15" font-weight="800" letter-spacing="2">TASKS</text>
      <text x="22" y="88" fill="#F3B23C" font-family="JetBrains Mono, monospace" font-size="58" font-weight="900">03</text>
    </g>

    <g transform="translate(157 360)">
      <rect width="557" height="232" rx="18" fill="#11141B" stroke="#F1F3F4" stroke-opacity=".09"/>
      <text x="28" y="44" fill="#F1F3F4" font-family="Inter, Arial, sans-serif" font-size="26" font-weight="900">Últimas tandas</text>
      <g transform="translate(28 72)">
        <path d="M0 0H501" stroke="#F1F3F4" stroke-opacity=".06"/>
        <text x="0" y="38" fill="#F1F3F4" font-family="Inter, Arial, sans-serif" font-size="22" font-weight="800">Piloto ER-01</text>
        <text x="0" y="66" fill="#F1F3F4" fill-opacity=".42" font-family="Inter, Arial, sans-serif" font-size="17">T3 · KBR · 01 Mar</text>
        <text x="386" y="52" fill="#F3B23C" font-family="JetBrains Mono, monospace" font-size="38" font-weight="900">42.891</text>
      </g>
      <g transform="translate(28 154)">
        <path d="M0 0H501" stroke="#F1F3F4" stroke-opacity=".06"/>
        <text x="0" y="38" fill="#F1F3F4" font-family="Inter, Arial, sans-serif" font-size="22" font-weight="800">Piloto ER-01</text>
        <text x="0" y="66" fill="#F1F3F4" fill-opacity=".42" font-family="Inter, Arial, sans-serif" font-size="17">T2 · KBR · 01 Mar</text>
        <text x="386" y="52" fill="#F3B23C" font-family="JetBrains Mono, monospace" font-size="38" font-weight="900">43.204</text>
      </g>
    </g>

    <g transform="translate(748 360)">
      <rect width="295" height="232" rx="18" fill="#11141B" stroke="#F1F3F4" stroke-opacity=".09"/>
      <text x="26" y="44" fill="#F1F3F4" font-family="Inter, Arial, sans-serif" font-size="26" font-weight="900">Análisis IA</text>
      <rect x="26" y="72" width="243" height="32" rx="8" fill="#E10600" fill-opacity=".16" stroke="#E10600" stroke-opacity=".32"/>
      <text x="42" y="94" fill="#F1F3F4" font-family="Inter, Arial, sans-serif" font-size="15" font-weight="800">Frenar 8m más tarde en curva 3</text>
      <rect x="26" y="122" width="214" height="10" rx="5" fill="#F1F3F4" fill-opacity=".18"/>
      <rect x="26" y="148" width="243" height="10" rx="5" fill="#F1F3F4" fill-opacity=".12"/>
      <rect x="26" y="174" width="178" height="10" rx="5" fill="#F1F3F4" fill-opacity=".12"/>
      <text x="26" y="216" fill="#F3B23C" font-family="JetBrains Mono, monospace" font-size="14" letter-spacing="2">NEXT STINT FOCUS</text>
    </g>
  </g>

  <defs>
    <radialGradient id="bg" cx="0" cy="0" r="1" gradientUnits="userSpaceOnUse" gradientTransform="translate(214 91) rotate(35) scale(755 412)">
      <stop stop-color="#E10600" stop-opacity=".32"/>
      <stop offset=".48" stop-color="#F3B23C" stop-opacity=".12"/>
      <stop offset="1" stop-color="#0B0D11" stop-opacity="0"/>
    </radialGradient>
    <filter id="shadow" x="77" y="54" width="1046" height="676" filterUnits="userSpaceOnUse" color-interpolation-filters="sRGB">
      <feDropShadow dx="0" dy="26" stdDeviation="30" flood-color="#000000" flood-opacity=".45"/>
    </filter>
  </defs>
</svg>
